<svg width="20" height="20" viewBox="0 0 20 20" fill="none" xmlns="http://www.w3.org/2000/svg">
<path d="M4.11 2.25V4.11H2.25C1.01 4.11 0 5.12 0 6.36V17.75C0 18.99 1.01 20 2.25 20H13.64C14.88 20 15.89 18.99 15.89 17.75V15.89H17.75C18.99 15.89 20 14.88 20 13.64V2.25C20 1.01 18.99 0 17.75 0H6.36C5.12 0 4.11 1.01 4.11 2.25ZM13.64 18.5H2.25C1.837 18.5 1.5 18.163 1.5 17.75V6.36C1.5 5.948 1.837 5.61 2.25 5.61H13.64C14.052 5.61 14.39 5.948 14.39 6.36V17.75C14.39 18.163 14.052 18.5 13.64 18.5ZM17.75 1.5C18.163 1.5 18.5 1.837 18.5 2.25V13.64C18.5 14.052 18.163 14.39 17.75 14.39H15.89V6.36C15.89 5.12 14.88 4.11 13.64 4.11H5.61V2.25C5.61 1.837 5.948 1.5 6.36 1.5H17.75Z" fill="#0F1419"/>
</svg>
